<svg xmlns="http://www.w3.org/2000/svg" width="64" height="64" viewBox="0 0 64 64">
    <g fill="none" fill-rule="evenodd">
        <path fill="#FFF" d="M0 0h64v64H0z"/>
        <g fill="#00B517" fill-rule="nonzero">
            <path d="M36.776 18.875c-1.81 0-3.404.737-4.651 2.14-1.247-1.403-2.84-2.14-4.651-2.14-3.66 0-6.527 3.041-6.527 6.924 0 4.076 3.17 6.75 7.555 10.452.765.646 1.556 1.314 2.395 2.04a1.871 1.871 0 0 0 2.456 0c.839-.726 1.63-1.394 2.395-2.04 4.067-3.432 7.555-6.226 7.555-10.452 0-3.883-2.867-6.924-6.527-6.924zm-3.446 14.51c-.394.333-.794.67-1.205 1.02a403.4 403.4 0 0 0-1.204-1.02c-4.203-3.547-6.224-5.351-6.224-7.586 0-1.577.954-3.174 2.777-3.174 2.013 0 2.791 2.481 2.845 2.662a1.867 1.867 0 0 0 3.612 0c.054-.18.832-2.662 2.846-2.662 1.822 0 2.776 1.597 2.776 3.174 0 2.329-2.364 4.33-6.223 7.586z"/>
            <path d="M54.625 60.25H37.39l12.4-10.114c6.647-5.371 10.46-13.348 10.46-21.886C60.25 12.673 47.633 0 32.125 0S4 12.673 4 28.25a28.015 28.015 0 0 0 10.454 21.881L26.86 60.25H13.375a1.875 1.875 0 0 0 0 3.75h41.25a1.875 1.875 0 0 0 0-3.75zM16.817 47.22C11.055 42.564 7.75 35.65 7.75 28.25c0-13.51 10.935-24.5 24.375-24.5S56.5 14.74 56.5 28.25c0 7.4-3.305 14.314-9.074 18.975l-15.301 12.48L16.817 47.22z"/>
            <path d="M32.125 7.625C20.752 7.625 11.5 16.877 11.5 28.25s9.252 20.625 20.625 20.625S52.75 39.623 52.75 28.25 43.498 7.625 32.125 7.625zm0 37.5c-9.305 0-16.875-7.57-16.875-16.875s7.57-16.875 16.875-16.875S49 18.945 49 28.25s-7.57 16.875-16.875 16.875z"/>
        </g>
    </g>
</svg>
