<svg xmlns="http://www.w3.org/2000/svg" width="64" height="64" viewBox="0 0 64 64">
    <path fill="#00B517" fill-rule="nonzero" d="M12.458 25.182c.731-.731 1.916-.731 2.647 0L33.63 43.707a1.871 1.871 0 0 1-2.646 2.646l-1.812-1.811a33.8 33.8 0 0 0-10.015 5.863l3.887 3.887a5.61 5.61 0 0 1 0 7.94 5.62 5.62 0 0 1-7.939 0l-4.197-4.197a5.62 5.62 0 0 1-6.389-1.096l-2.873-2.874a5.61 5.61 0 0 1 0-7.939l4.67-4.67a33.755 33.755 0 0 0 7.727-12.043l-1.585-1.585a1.871 1.871 0 0 1 0-2.646zm3.97 27.787l-2.646 2.647 3.97 3.97a1.87 1.87 0 1 0 2.646-2.646v-.001l-3.97-3.97zm-5.593-10.886c-.6.696-1.224 1.37-1.873 2.02l-4.67 4.67a1.87 1.87 0 0 0 0 2.646l2.873 2.873c.73.73 1.917.73 2.647 0l4.67-4.67a36.958 36.958 0 0 1 2.02-1.873zm6.089-9.79a37.596 37.596 0 0 1-3.776 6.81l6.333 6.333a37.61 37.61 0 0 1 6.81-3.775zM58.26.002c1.509 0 2.929.617 4 1.737a5.771 5.771 0 0 1 1.614 4.002v18.837a5.62 5.62 0 0 1-5.613 5.614H43.817L36.88 37.13a1.872 1.872 0 0 1-3.195-1.324v-5.614h-1.871a5.62 5.62 0 0 1-5.614-5.614V5.741a5.77 5.77 0 0 1 1.615-4.002c1.07-1.12 2.49-1.737 3.999-1.737zm0 3.743H31.814c-.997 0-1.872.932-1.872 1.996v18.838c0 1.031.84 1.871 1.872 1.871h3.742c1.034 0 1.872.838 1.872 1.871v2.968l4.29-4.291a1.87 1.87 0 0 1 1.323-.548h15.22c1.032 0 1.872-.84 1.872-1.871V5.74c0-1.064-.875-1.996-1.872-1.996zm-9.624 4.179c3.138 0 5.596 2.598 5.597 5.914 0 3.625-3.048 6.008-6.181 8.653-.612.516-1.245 1.05-1.914 1.63a1.868 1.868 0 0 1-2.451 0 188.26 188.26 0 0 0-1.915-1.63c-3.588-3.029-6.18-5.217-6.18-8.653 0-3.316 2.457-5.914 5.595-5.914 1.605 0 2.831.66 3.725 1.537.894-.876 2.12-1.537 3.724-1.537zm0 3.742c-1.368 0-1.915 1.838-1.92 1.856A1.88 1.88 0 0 1 44.9 14.91a1.852 1.852 0 0 1-1.79-1.38c-.047-.154-.6-1.864-1.923-1.864-1.216 0-1.853 1.093-1.853 2.172 0 1.622 1.664 3.101 4.852 5.792l.726.614.725-.613c2.883-2.433 4.853-4.064 4.853-5.793 0-1.079-.637-2.172-1.853-2.172z"/>
</svg>
