<svg xmlns="http://www.w3.org/2000/svg" width="64" height="64" viewBox="0 0 64 64">
    <g fill="none" fill-rule="evenodd">
        <path fill="#FFF" d="M0 0h64v64H0z"/>
        <path fill="#00B517" fill-rule="nonzero" d="M43.77 19.174a13.044 13.044 0 0 0 1.48-6.049C45.25 5.888 39.362 0 32.125 0S19 5.888 19 13.125c0 2.18.535 4.238 1.48 6.05C11.238 21.093 4 29.488 4 39.624v2.642a22.509 22.509 0 0 0 6.636 16.02 6.656 6.656 0 0 0 4.738 1.963c2.928 0 5.418-1.811 6.33-4.58 2.524 2.262 5.869 4.99 9.193 7.872a1.871 1.871 0 0 0 2.456 0c3.352-2.906 6.666-5.606 9.197-7.872.91 2.768 3.398 4.58 6.326 4.58 1.79 0 3.472-.697 4.738-1.962a22.508 22.508 0 0 0 6.636-16.021v-2.642c0-10.132-7.233-18.53-16.48-20.45zM32.125 3.75c5.17 0 9.375 4.206 9.375 9.375 0 5.17-4.206 9.375-9.375 9.375-5.17 0-9.375-4.206-9.375-9.375 0-5.17 4.206-9.375 9.375-9.375zm11.8 45.289l-.003.003-.01.01a35.512 35.512 0 0 1-2.27 2.355c-2.514 2.4-5.752 5.018-9.517 8.243-8.952-7.666-14.892-11.874-14.892-17.487 0-4.12 2.798-7.225 6.508-7.225 1.974 0 3.655.931 4.998 2.768 1.116 1.526 1.576 3.113 1.579 3.123a1.877 1.877 0 0 0 1.806 1.377c.843 0 1.581-.559 1.806-1.37.005-.017.465-1.604 1.58-3.13 1.344-1.837 3.025-2.768 4.998-2.768 3.71 0 6.509 3.106 6.509 7.225 0 2.285-.9 4.351-3.092 6.876zM56.5 42.267c0 5.05-1.967 9.798-5.538 13.369a2.931 2.931 0 0 1-2.086.864c-2.572 0-3.765-2.934-2.214-4.885 2.327-2.648 4.105-5.674 4.105-9.452 0-5.982-4.26-10.975-10.259-10.975-3.235 0-6.038 1.527-8.106 4.416-.096.135-.188.27-.277.404a13.55 13.55 0 0 0-.277-.404c-2.068-2.89-4.87-4.416-8.107-4.416-6 0-10.258 4.996-10.258 10.975 0 3.644 1.653 6.625 4.056 9.383 1.636 1.955.433 4.954-2.165 4.954a2.931 2.931 0 0 1-2.086-.864 18.783 18.783 0 0 1-5.538-13.37v-2.641c0-8.75 6.781-16.229 15.277-17.05a13.08 13.08 0 0 0 9.098 3.675c3.529 0 6.737-1.4 9.098-3.674 8.496.82 15.277 8.299 15.277 17.049v2.642z"/>
    </g>
</svg>
