<svg xmlns="http://www.w3.org/2000/svg" width="120" height="120" viewBox="0 0 120 120">
    <g fill="none" fill-rule="evenodd">
        <circle cx="60" cy="60" r="60" fill="#FFF"/>
        <g fill-rule="nonzero">
            <g fill="#141ED2">
                <path d="M98.957 73.61c-3.395 0-6.573-.077-9.054-.212V46.373c.864-.074 3.536-.133 7.315-.228 2.37-.06 4.634.035 6.407.315 4.015.635 5.477 2.553 6.108 3.607.605 1.017 1.01 2.147.913 3.616-.114 1.723-.671 3.137-2.432 4.528l-.31.245.353.178c1.22.615 2 1.59 2.532 2.549.64 1.156.965 2.473.965 3.915 0 2.914-1.045 5.118-3.171 6.594-1.883 1.31-4.511 1.918-9.626 1.918zm-2.703-5.573c1.358.084 2.825.144 4.3.092 1.145-.041 2.66-.13 3.736-1.23.962-.984 1.135-2.458.418-3.673-.667-1.128-1.995-1.68-5.216-1.64-1.628 0-3.199.173-3.255.18l.017 6.27zm3.03-16.782c-.586 0-2.124-.022-3.038.146v5.301l.232.023c.012.001 1.267.106 2.716.106 2.347 0 3.709-.178 4.535-.903.83-.731 1.043-1.935.528-2.97-.814-1.628-3.353-1.703-4.973-1.703zM83.73 46.358h-6.275c-.562 1.156-4.472 9.23-6.262 13.838l-.123.316h-.212l-.123-.316c-1.791-4.607-5.7-12.682-6.264-13.838h-6.275c-1.356 9.762-2.029 24.863-2.12 27.025h6.249c.058-1.81.432-13.202.692-15.761l.065-.646h.153l.25.57c2.083 4.756 4.768 11.288 5.212 12.37h4.53c.444-1.082 3.128-7.614 5.214-12.37l.249-.57h.153l.066.646c.26 2.56.635 13.951.693 15.761h6.247c-.09-2.163-.763-17.263-2.119-27.025z"/>
            </g>
            <g fill="#EB2D4B">
                <path d="M16.648 51.39l7.763 3.372c.458.201.966.297 1.493.214a2.56 2.56 0 0 0 .175-5.023c-.017-.005-8.284-1.84-8.302-1.845a1.742 1.742 0 0 0-2.153 1.96 1.76 1.76 0 0 0 1.024 1.322zM26.136 45.864c-.292.484-.405 1.074-.217 1.65a1.935 1.935 0 0 0 3.279.694l4.853-5.632c.595-.692.88-1.631.578-2.556a2.561 2.561 0 0 0-4.614-.55l-3.88 6.394zM40.074 55.16c-.55-.127-1.146-.05-1.637.307a1.936 1.936 0 0 0 .358 3.333c.017.008 6.845 2.856 6.861 2.864.843.351 1.824.33 2.61-.243a2.561 2.561 0 0 0 .56-3.578 2.508 2.508 0 0 0-1.47-.98l-7.282-1.703zM35.553 71.263c-.048-.562-.303-1.106-.794-1.462a1.935 1.935 0 0 0-3.061 1.367l-.614 7.409c-.075.91.247 1.836 1.034 2.407a2.56 2.56 0 0 0 3.577-.567 2.507 2.507 0 0 0 .48-1.701c-.015-.16-.62-7.435-.622-7.453zM18.815 71.97c.521-.22.959-.63 1.147-1.207a1.934 1.934 0 0 0-2.243-2.49c-.018.003-7.22 1.693-7.238 1.697-.889.208-1.672.8-1.973 1.725a2.56 2.56 0 0 0 1.641 3.228 2.51 2.51 0 0 0 1.766-.068l6.9-2.886zM12.996 56.254c.37.427.897.716 1.504.716a1.936 1.936 0 0 0 1.673-2.904c-.008-.016-3.85-6.34-3.86-6.355-.474-.78-1.28-1.34-2.251-1.34a2.561 2.561 0 0 0-2.56 2.562c0 .633.225 1.217.612 1.658l4.882 5.663zM31.893 47.834l-.811 8.425c-.05.497.015 1.01.257 1.486a2.56 2.56 0 0 0 4.832-1.384l-.808-8.466a1.742 1.742 0 0 0-2.528-1.442c-.55.28-.875.809-.942 1.381zM39.98 61.23l-8.26 1.84a2.648 2.648 0 0 0-1.333.706c-1 1-.999 2.622.002 3.62.76.76 1.882.946 2.812.545l7.8-3.392a1.742 1.742 0 0 0 .588-2.851 1.766 1.766 0 0 0-1.608-.468zM29.744 73.068c-.01-.015-4.287-7.276-4.296-7.291a2.656 2.656 0 0 0-1.083-1.051 2.561 2.561 0 0 0-3.444 1.117 2.55 2.55 0 0 0 .349 2.842l5.63 6.374a1.741 1.741 0 0 0 2.893-.319c.281-.549.232-1.17-.05-1.672zM15.32 66.989l5.61-6.338c.333-.372.582-.825.665-1.353a2.56 2.56 0 0 0-4.722-1.721L12.548 64.9a1.742 1.742 0 0 0 1.198 2.654 1.764 1.764 0 0 0 1.574-.565z"/>
            </g>
        </g>
    </g>
</svg>
