<svg xmlns="http://www.w3.org/2000/svg" width="64" height="64" viewBox="0 0 64 64">
    <g fill="none" fill-rule="evenodd">
        <path fill="#FFF" d="M0 0h64v64H0z"/>
        <g fill="#00B517" fill-rule="nonzero">
            <path d="M37.45 53.174l-2.423-2.424c.09-.133 2.973-2.498 2.973-6.857v-.643a5.631 5.631 0 0 0-5.625-5.625 5.631 5.631 0 0 0-5.625 5.625v.643c0 4.375 2.878 6.718 2.973 6.857L27.3 53.174a1.875 1.875 0 1 0 2.652 2.652l2.424-2.424 2.424 2.424a1.875 1.875 0 1 0 2.652-2.652zm-3.2-9.28c0 2.683-1.794 4.088-1.875 4.204-.081-.117-1.875-1.52-1.875-4.205v-.643c0-1.034.841-1.875 1.875-1.875s1.875.841 1.875 1.875v.643z"/>
            <path d="M56.694 31.545l-3.75-15a1.875 1.875 0 0 0-1.819-1.42H39.87a9.366 9.366 0 0 0-7.495-3.75 9.366 9.366 0 0 0-7.495 3.75H13.625c-.86 0-1.61.586-1.819 1.42l-3.75 15A2.334 2.334 0 0 0 8 32v30.125C8 63.16 8.84 64 9.875 64h45c1.035 0 1.875-.84 1.875-1.875V32c0-.125-.024-.326-.056-.455zm-24.319-16.42A5.631 5.631 0 0 1 38 20.75c0 .642-.111 1.276-.322 1.875H27.072a5.639 5.639 0 0 1-.322-1.875 5.61 5.61 0 0 1 5.625-5.625zm-17.286 3.738h8.1a9.507 9.507 0 0 0 0 3.762h-2.064a1.875 1.875 0 0 0 0 3.75h22.5a1.875 1.875 0 0 0 0-3.75H41.56a9.4 9.4 0 0 0 .001-3.75h8.1l2.813 11.25H12.276l2.813-11.262zM53 60.25H11.75V33.875H53V60.25zM32.375 0C31.34 0 30.5.84 30.5 1.875V5.75a1.875 1.875 0 0 0 3.75 0V1.875C34.25.84 33.41 0 32.375 0zM24.875 3.875c-1.036 0-1.875.84-1.875 1.875V9.5a1.875 1.875 0 0 0 3.75 0V5.75c0-1.035-.84-1.875-1.875-1.875zM39.875 3.875C38.84 3.875 38 4.715 38 5.75V9.5a1.875 1.875 0 0 0 3.75 0V5.75c0-1.035-.84-1.875-1.875-1.875z"/>
        </g>
    </g>
</svg>
